<?xml version="1.0" standalone="no"?>
<!DOCTYPE svg PUBLIC "-//W3C//DTD SVG 20010904//EN"
 "http://www.w3.org/TR/2001/REC-SVG-20010904/DTD/svg10.dtd">
<svg version="1.0" xmlns="http://www.w3.org/2000/svg"
 width="512.000000pt" height="512.000000pt" viewBox="0 0 512.000000 512.000000"
 preserveAspectRatio="xMidYMid meet">
<metadata>
Created by potrace 1.11, written by Peter Selinger 2001-2013
</metadata>
<g transform="translate(0.000000,512.000000) scale(0.100000,-0.100000)"
fill="#000000" stroke="none">
<path d="M2380 4429 c-14 -5 -34 -22 -45 -37 -20 -27 -20 -43 -20 -1835 l0
-1809 37 -33 37 -34 203 0 c228 1 255 7 282 64 14 30 16 213 16 1815 0 1563
-2 1786 -15 1814 -28 58 -40 61 -265 63 -113 0 -216 -3 -230 -8z"/>
<path d="M1324 3988 c-16 -4 -39 -22 -51 -41 l-23 -33 0 -1353 c0 -1475 -3
-1385 54 -1421 24 -16 389 -22 443 -8 18 5 42 23 55 41 l23 32 1 1340 c0 737
-4 1354 -8 1372 -5 18 -22 42 -40 54 -30 22 -41 23 -228 24 -108 0 -210 -3
-226 -7z"/>
<path d="M3440 3774 c-69 -28 -64 59 -65 -1204 -1 -630 3 -1156 7 -1170 5 -14
21 -34 36 -45 25 -18 45 -20 230 -22 221 -3 256 3 287 51 16 23 17 118 17
1181 0 1111 -1 1157 -18 1177 -39 42 -61 46 -264 46 -149 1 -203 -3 -230 -14z"/>
<path d="M203 2985 c-17 -13 -18 -40 -18 -425 0 -387 1 -413 18 -425 14 -10
77 -14 271 -14 235 -1 255 1 270 18 15 17 17 54 17 352 0 494 1 476 -17 493
-13 14 -51 16 -269 15 -193 -1 -258 -4 -272 -14z"/>
<path d="M4459 2872 c-18 -12 -19 -28 -19 -312 l0 -300 23 -13 c31 -20 519
-19 539 1 18 18 20 596 2 620 -11 15 -41 17 -269 18 -200 0 -260 -3 -276 -14z"/>
</g>
</svg>
