<?xml version="1.0" encoding="UTF-8" standalone="no"?>
<!DOCTYPE svg PUBLIC "-//W3C//DTD SVG 1.1//EN"
 "http://www.w3.org/Graphics/SVG/1.1/DTD/svg11.dtd">
<!-- Generated by graphviz version 7.0.4 (0)
 -->
<!-- Pages: 1 -->
<svg width="1142pt" height="881pt"
 viewBox="0.00 0.00 1141.72 881.44" xmlns="http://www.w3.org/2000/svg" xmlns:xlink="http://www.w3.org/1999/xlink">
<g id="graph0" class="graph" transform="scale(1 1) rotate(0) translate(4 877.44)">
<polygon fill="white" stroke="none" points="-4,4 -4,-877.44 1137.72,-877.44 1137.72,4 -4,4"/>
<!-- pushService -->
<g id="node1" class="node">
<title>pushService</title>
<polygon fill="#85bbf0" stroke="black" points="283,-550.19 0,-550.19 0,-514.19 283,-514.19 283,-550.19"/>
<text text-anchor="middle" x="141.5" y="-528.49" font-family="Times,serif" font-size="14.00">Сервис отправки Push&#45;уведомлений</text>
</g>
<!-- notifications -->
<g id="node2" class="node">
<title>notifications</title>
<polygon fill="#85bbf0" stroke="black" points="677.52,-610.47 486.52,-610.47 486.52,-574.47 677.52,-574.47 677.52,-610.47"/>
<text text-anchor="middle" x="582.02" y="-588.77" font-family="Times,serif" font-size="14.00">Коллекция уедомлений</text>
</g>
<!-- getNewsNotifications -->
<g id="node6" class="node">
<title>getNewsNotifications</title>
<polygon fill="#b6d7f0" stroke="black" points="751.86,-873.44 426.86,-873.44 426.86,-837.44 751.86,-837.44 751.86,-873.44"/>
<text text-anchor="middle" x="589.36" y="-851.74" font-family="Times,serif" font-size="14.00">Получить список новостных уведомлений</text>
</g>
<!-- notifications&#45;&gt;getNewsNotifications -->
<g id="edge6" class="edge">
<title>notifications&#45;&gt;getNewsNotifications</title>
<path fill="none" stroke="#6c8ebf" d="M582.54,-610.96C583.79,-655.85 587,-770.9 588.52,-825.64"/>
<polygon fill="#6c8ebf" stroke="#6c8ebf" points="585.02,-825.56 588.8,-835.46 592.02,-825.36 585.02,-825.56"/>
<text text-anchor="middle" x="494.53" y="-722.1" font-family="Times,serif" font-size="14.00">Новостные уведомления</text>
</g>
<!-- getPersonalNotifications -->
<g id="node9" class="node">
<title>getPersonalNotifications</title>
<polygon fill="#b6d7f0" stroke="black" points="916.75,-402.85 564.75,-402.85 564.75,-366.85 916.75,-366.85 916.75,-402.85"/>
<text text-anchor="middle" x="740.75" y="-381.15" font-family="Times,serif" font-size="14.00">Получить список персональных уведомлений</text>
</g>
<!-- notifications&#45;&gt;getPersonalNotifications -->
<g id="edge8" class="edge">
<title>notifications&#45;&gt;getPersonalNotifications</title>
<path fill="none" stroke="#6c8ebf" d="M596.11,-574.04C624.11,-537.41 686.9,-455.28 719.78,-412.28"/>
<polygon fill="#6c8ebf" stroke="#6c8ebf" points="722.48,-414.5 725.77,-404.43 716.92,-410.25 722.48,-414.5"/>
<text text-anchor="middle" x="608.44" y="-496.96" font-family="Times,serif" font-size="14.00">Уведомления</text>
</g>
<!-- createNewsNotification -->
<g id="node3" class="node">
<title>createNewsNotification</title>
<polygon fill="#b6d7f0" stroke="black" points="494.75,-456.85 240.75,-456.85 240.75,-420.85 494.75,-420.85 494.75,-456.85"/>
<text text-anchor="middle" x="367.75" y="-435.15" font-family="Times,serif" font-size="14.00">Создать новостное уведомление</text>
</g>
<!-- createNewsNotification&#45;&gt;pushService -->
<g id="edge1" class="edge">
<title>createNewsNotification&#45;&gt;pushService</title>
<path fill="none" stroke="#b85450" d="M323.05,-457.29C286.79,-472.25 235.52,-493.4 196.7,-509.41"/>
<polygon fill="#b85450" stroke="#b85450" points="195.41,-506.16 187.51,-513.21 198.08,-512.63 195.41,-506.16"/>
<text text-anchor="middle" x="201.37" y="-487.15" font-family="Times,serif" font-size="14.00">Отправить push</text>
</g>
<!-- createNewsNotification&#45;&gt;notifications -->
<g id="edge2" class="edge">
<title>createNewsNotification&#45;&gt;notifications</title>
<path fill="none" stroke="#b85450" d="M393.17,-457.07C431.4,-484.49 503.83,-536.41 547.03,-567.38"/>
<polygon fill="#b85450" stroke="#b85450" points="544.9,-570.16 555.07,-573.15 548.98,-564.47 544.9,-570.16"/>
<text text-anchor="middle" x="385.6" y="-516.03" font-family="Times,serif" font-size="14.00">Добавить уведомление</text>
</g>
<!-- deleteNotification -->
<g id="node4" class="node">
<title>deleteNotification</title>
<polygon fill="#b6d7f0" stroke="black" points="889.28,-744.25 713.28,-744.25 713.28,-708.25 889.28,-708.25 889.28,-744.25"/>
<text text-anchor="middle" x="801.28" y="-722.55" font-family="Times,serif" font-size="14.00">Удалить уведомление</text>
</g>
<!-- deleteNotification&#45;&gt;notifications -->
<g id="edge3" class="edge">
<title>deleteNotification&#45;&gt;notifications</title>
<path fill="none" stroke="#b85450" d="M771.25,-707.93C732.4,-684.22 664.63,-642.87 621.61,-616.63"/>
<polygon fill="#b85450" stroke="#b85450" points="623.69,-613.79 613.33,-611.57 620.04,-619.77 623.69,-613.79"/>
<text text-anchor="middle" x="616.43" y="-666.08" font-family="Times,serif" font-size="14.00">Удалить уведомление</text>
</g>
<!-- createPersonalNotification -->
<g id="node5" class="node">
<title>createPersonalNotification</title>
<polygon fill="#b6d7f0" stroke="black" points="477.13,-694.83 196.13,-694.83 196.13,-658.83 477.13,-658.83 477.13,-694.83"/>
<text text-anchor="middle" x="336.63" y="-673.13" font-family="Times,serif" font-size="14.00">Создать персональное уведомление</text>
</g>
<!-- createPersonalNotification&#45;&gt;pushService -->
<g id="edge4" class="edge">
<title>createPersonalNotification&#45;&gt;pushService</title>
<path fill="none" stroke="#b85450" d="M311.91,-658.51C277.26,-632.82 214.12,-586.02 175.19,-557.16"/>
<polygon fill="#b85450" stroke="#b85450" points="177.65,-554.63 167.54,-551.49 173.48,-560.25 177.65,-554.63"/>
<text text-anchor="middle" x="185.05" y="-611.63" font-family="Times,serif" font-size="14.00">Отправить push</text>
</g>
<!-- createPersonalNotification&#45;&gt;notifications -->
<g id="edge5" class="edge">
<title>createPersonalNotification&#45;&gt;notifications</title>
<path fill="none" stroke="#b85450" d="M390.18,-658.42C427.77,-645.5 478.22,-628.15 517.95,-614.5"/>
<polygon fill="#b85450" stroke="#b85450" points="518.83,-617.89 527.15,-611.33 516.56,-611.27 518.83,-617.89"/>
<text text-anchor="middle" x="369.56" y="-640.26" font-family="Times,serif" font-size="14.00">Добавить уведомление</text>
</g>
<!-- readNotifications -->
<g id="node7" class="node">
<title>readNotifications</title>
<polygon fill="#85bbf0" stroke="black" points="991.22,-209.35 773.22,-209.35 773.22,-173.35 991.22,-173.35 991.22,-209.35"/>
<text text-anchor="middle" x="882.22" y="-187.65" font-family="Times,serif" font-size="14.00">Прочитанные уведомления</text>
</g>
<!-- readNotifications&#45;&gt;getPersonalNotifications -->
<g id="edge9" class="edge">
<title>readNotifications&#45;&gt;getPersonalNotifications</title>
<path fill="none" stroke="#6c8ebf" d="M868.91,-209.55C844,-243.62 790.21,-317.19 760.86,-357.34"/>
<polygon fill="#6c8ebf" stroke="#6c8ebf" points="758.09,-355.19 755.02,-365.33 763.74,-359.32 758.09,-355.19"/>
<text text-anchor="middle" x="750.88" y="-287.25" font-family="Times,serif" font-size="14.00">Флаги прочтения</text>
</g>
<!-- readNotification -->
<g id="node8" class="node">
<title>readNotification</title>
<polygon fill="#b6d7f0" stroke="black" points="1133.72,-36 938.72,-36 938.72,0 1133.72,0 1133.72,-36"/>
<text text-anchor="middle" x="1036.22" y="-14.3" font-family="Times,serif" font-size="14.00">Прочитать уведомление</text>
</g>
<!-- readNotification&#45;&gt;readNotifications -->
<g id="edge7" class="edge">
<title>readNotification&#45;&gt;readNotifications</title>
<path fill="none" stroke="#b85450" d="M1020.03,-36.22C992.76,-66.92 937.57,-129.05 905.93,-164.66"/>
<polygon fill="#b85450" stroke="#b85450" points="903.45,-162.18 899.43,-171.98 908.69,-166.82 903.45,-162.18"/>
<text text-anchor="middle" x="807.48" y="-104.24" font-family="Times,serif" font-size="14.00">Добавить пару пользователь/уведомление</text>
</g>
</g>
</svg>
