<?xml version="1.0" encoding="UTF-8" standalone="no"?>
<!DOCTYPE svg PUBLIC "-//W3C//DTD SVG 1.1//EN" "http://www.w3.org/Graphics/SVG/1.1/DTD/svg11.dtd">
<!-- Generated by graphviz version 2.40.1 (20161225.0304)
 -->
<!-- Title: %0 Pages: 1 -->
<svg width="4072pt" height="310pt" viewBox="0.00 0.00 4072.33 310.40" xmlns="http://www.w3.org/2000/svg" xmlns:xlink="http://www.w3.org/1999/xlink">
<g id="graph0" class="graph" transform="scale(1 1) rotate(0) translate(4 306.4)">
<title>%0</title>
<polygon fill="#ffffff" stroke="transparent" points="-4,4 -4,-306.4 4068.3311,-306.4 4068.3311,4 -4,4"/>
<!-- requestOtp -->
<g id="node1" class="node">
<title>requestOtp</title>
<polygon fill="#b6d7f0" stroke="#000000" points="389.1834,-302.4 223.5488,-302.4 223.5488,-266.4 389.1834,-266.4 389.1834,-302.4"/>
<text text-anchor="middle" x="306.3661" y="-280.2" font-family="Times,serif" font-size="14.00" fill="#000000">Запросить OTP</text>
</g>
<!-- smsSender -->
<g id="node2" class="node">
<title>smsSender</title>
<polygon fill="#85bbf0" stroke="#000000" points="296.5984,-213.6 .1338,-213.6 .1338,-177.6 296.5984,-177.6 296.5984,-213.6"/>
<text text-anchor="middle" x="148.3661" y="-191.4" font-family="Times,serif" font-size="14.00" fill="#000000">Сервис отправки СМС</text>
</g>
<!-- requestOtp&#45;&gt;smsSender -->
<g id="edge1" class="edge">
<title>requestOtp-&gt;smsSender</title>
<path fill="none" stroke="#b85450" d="M223.6026,-270.3429C198.165,-264.5443 174.4173,-257.1221 165.1697,-248.4 158.2547,-241.878 154.1744,-232.5243 151.7708,-223.4967"/>
<polygon fill="#b85450" stroke="#b85450" points="155.1769,-222.6851 149.7076,-213.6111 148.3245,-224.1152 155.1769,-222.6851"/>
<text text-anchor="middle" x="255.9643" y="-235.8" font-family="Times,serif" font-size="14.00" fill="#000000">Отправить СМС</text>
</g>
<!-- otps -->
<g id="node3" class="node">
<title>otps</title>
<polygon fill="#85bbf0" stroke="#000000" points="508.1834,-213.6 314.5488,-213.6 314.5488,-177.6 508.1834,-177.6 508.1834,-213.6"/>
<text text-anchor="middle" x="411.3661" y="-191.4" font-family="Times,serif" font-size="14.00" fill="#000000">Коллекция OTP</text>
</g>
<!-- requestOtp&#45;&gt;otps -->
<g id="edge2" class="edge">
<title>requestOtp-&gt;otps</title>
<path fill="none" stroke="#b85450" d="M327.8678,-266.2157C343.4392,-253.0467 364.6789,-235.0841 381.8393,-220.5712"/>
<polygon fill="#b85450" stroke="#b85450" points="384.5177,-222.8899 389.8932,-213.76 379.9975,-217.545 384.5177,-222.8899"/>
<text text-anchor="middle" x="447.4976" y="-235.8" font-family="Times,serif" font-size="14.00" fill="#000000">Сохранить OTP</text>
</g>
<!-- otpLogin -->
<g id="node4" class="node">
<title>otpLogin</title>
<polygon fill="#b6d7f0" stroke="#000000" points="553.2426,-124.8 269.4896,-124.8 269.4896,-88.8 553.2426,-88.8 553.2426,-124.8"/>
<text text-anchor="middle" x="411.3661" y="-102.6" font-family="Times,serif" font-size="14.00" fill="#000000">Получить токен из OTP</text>
</g>
<!-- otps&#45;&gt;otpLogin -->
<g id="edge3" class="edge">
<title>otps-&gt;otpLogin</title>
<path fill="none" stroke="#6c8ebf" d="M411.3661,-177.2006C411.3661,-165.0949 411.3661,-149.0076 411.3661,-135.2674"/>
<polygon fill="#6c8ebf" stroke="#6c8ebf" points="414.8662,-134.872 411.3661,-124.872 407.8662,-134.8721 414.8662,-134.872"/>
<text text-anchor="middle" x="552.9159" y="-147" font-family="Times,serif" font-size="14.00" fill="#000000">Флаг валидности OTP</text>
</g>
<!-- tokens -->
<g id="node6" class="node">
<title>tokens</title>
<polygon fill="#85bbf0" stroke="#000000" points="779.9562,-36 484.776,-36 484.776,0 779.9562,0 779.9562,-36"/>
<text text-anchor="middle" x="632.3661" y="-13.8" font-family="Times,serif" font-size="14.00" fill="#000000">Коллекция токенов</text>
</g>
<!-- otpLogin&#45;&gt;tokens -->
<g id="edge4" class="edge">
<title>otpLogin-&gt;tokens</title>
<path fill="none" stroke="#b85450" d="M406.493,-88.5656C404.6514,-77.2946 404.6431,-63.2623 412.7171,-54 418.0097,-47.9285 443.153,-41.9932 474.6555,-36.7495"/>
<polygon fill="#b85450" stroke="#b85450" points="475.3049,-40.1901 484.6214,-35.1449 474.1921,-33.2791 475.3049,-40.1901"/>
<text text-anchor="middle" x="622.6906" y="-58.2" font-family="Times,serif" font-size="14.00" fill="#000000">Сохранить токен пользователя</text>
</g>
<!-- passLogin -->
<g id="node5" class="node">
<title>passLogin</title>
<polygon fill="#b6d7f0" stroke="#000000" points="1090.5664,-124.8 616.1658,-124.8 616.1658,-88.8 1090.5664,-88.8 1090.5664,-124.8"/>
<text text-anchor="middle" x="853.3661" y="-102.6" font-family="Times,serif" font-size="14.00" fill="#000000">Получить токен из логина/пароля</text>
</g>
<!-- passLogin&#45;&gt;tokens -->
<g id="edge6" class="edge">
<title>passLogin-&gt;tokens</title>
<path fill="none" stroke="#b85450" d="M850.3958,-88.708C847.5216,-77.0499 841.9663,-62.528 831.3661,-54 823.2711,-47.4875 808.2831,-42.0621 790.0218,-37.5692"/>
<polygon fill="#b85450" stroke="#b85450" points="790.7238,-34.1393 780.1931,-35.3039 789.1516,-40.9605 790.7238,-34.1393"/>
<text text-anchor="middle" x="1053.6906" y="-58.2" font-family="Times,serif" font-size="14.00" fill="#000000">Сохранить токен пользователя</text>
</g>
<!-- users -->
<g id="node7" class="node">
<title>users</title>
<polygon fill="#85bbf0" stroke="#000000" points="1181.5692,-213.6 791.163,-213.6 791.163,-177.6 1181.5692,-177.6 1181.5692,-213.6"/>
<text text-anchor="middle" x="986.3661" y="-191.4" font-family="Times,serif" font-size="14.00" fill="#000000">Коллкеция пользователей</text>
</g>
<!-- users&#45;&gt;passLogin -->
<g id="edge5" class="edge">
<title>users-&gt;passLogin</title>
<path fill="none" stroke="#6c8ebf" d="M889.3398,-177.5432C872.9622,-172.589 859.4871,-166.6102 854.0565,-159.6 848.748,-152.7474 847.2667,-143.7538 847.5097,-135.1355"/>
<polygon fill="#6c8ebf" stroke="#6c8ebf" points="851.0129,-135.2759 848.5198,-124.9785 844.0473,-134.583 851.0129,-135.2759"/>
<text text-anchor="middle" x="1157.0209" y="-147" font-family="Times,serif" font-size="14.00" fill="#000000">Аутентификационные данные пользователя</text>
</g>
<!-- getUser -->
<g id="node12" class="node">
<title>getUser</title>
<polygon fill="#b6d7f0" stroke="#000000" points="2045.14,-124.8 1729.5922,-124.8 1729.5922,-88.8 2045.14,-88.8 2045.14,-124.8"/>
<text text-anchor="middle" x="1887.3661" y="-102.6" font-family="Times,serif" font-size="14.00" fill="#000000">Получить пользователя</text>
</g>
<!-- users&#45;&gt;getUser -->
<g id="edge9" class="edge">
<title>users-&gt;getUser</title>
<path fill="none" stroke="#6c8ebf" d="M1181.6097,-188.0499C1287.9087,-182.4923 1407.9777,-173.4509 1459.3661,-159.6 1475.9204,-155.138 1477.5726,-147.3886 1494.0923,-142.8 1535.9156,-131.1828 1632.5765,-122.2506 1719.597,-116.1893"/>
<polygon fill="#6c8ebf" stroke="#6c8ebf" points="1719.875,-119.6785 1729.6116,-115.5013 1719.3952,-112.695 1719.875,-119.6785"/>
<text text-anchor="middle" x="1685.003" y="-147" font-family="Times,serif" font-size="14.00" fill="#000000">Информация о пользователе</text>
</g>
<!-- editUser -->
<g id="node8" class="node">
<title>editUser</title>
<polygon fill="#b6d7f0" stroke="#000000" points="815.0385,-302.4 459.6937,-302.4 459.6937,-266.4 815.0385,-266.4 815.0385,-302.4"/>
<text text-anchor="middle" x="637.3661" y="-280.2" font-family="Times,serif" font-size="14.00" fill="#000000">Изменить пользователя</text>
</g>
<!-- editUser&#45;&gt;users -->
<g id="edge7" class="edge">
<title>editUser-&gt;users</title>
<path fill="none" stroke="#b85450" d="M630.3414,-266.3302C627.2217,-254.9812 625.8852,-240.8012 634.1937,-231.6 645.3316,-219.2655 709.9258,-210.9273 780.8163,-205.4105"/>
<polygon fill="#b85450" stroke="#b85450" points="781.1488,-208.8954 790.8561,-204.6506 780.6205,-201.9154 781.1488,-208.8954"/>
<text text-anchor="middle" x="863.4523" y="-235.8" font-family="Times,serif" font-size="14.00" fill="#000000">Изменить данные пользователя</text>
</g>
<!-- deleteUser -->
<g id="node9" class="node">
<title>deleteUser</title>
<polygon fill="#b6d7f0" stroke="#000000" points="1279.64,-302.4 957.0922,-302.4 957.0922,-266.4 1279.64,-266.4 1279.64,-302.4"/>
<text text-anchor="middle" x="1118.3661" y="-280.2" font-family="Times,serif" font-size="14.00" fill="#000000">Удалить пользователя</text>
</g>
<!-- deleteUser&#45;&gt;users -->
<g id="edge8" class="edge">
<title>deleteUser-&gt;users</title>
<path fill="none" stroke="#b85450" d="M1114.8653,-266.2626C1111.7901,-254.8859 1106.2105,-240.7003 1096.3661,-231.6 1090.8882,-226.5361 1084.6858,-222.1839 1078.0841,-218.4434"/>
<polygon fill="#b85450" stroke="#b85450" points="1079.3599,-215.1641 1068.865,-213.7124 1076.1639,-221.392 1079.3599,-215.1641"/>
<text text-anchor="middle" x="1394.0833" y="-235.8" font-family="Times,serif" font-size="14.00" fill="#000000">Установаить флаг удаления пользователя</text>
</g>
<!-- wheelSizes -->
<g id="node10" class="node">
<title>wheelSizes</title>
<polygon fill="#85bbf0" stroke="#000000" points="2190.9797,-213.6 1985.7525,-213.6 1985.7525,-177.6 2190.9797,-177.6 2190.9797,-213.6"/>
<text text-anchor="middle" x="2088.3661" y="-191.4" font-family="Times,serif" font-size="14.00" fill="#000000">Размеры колёс</text>
</g>
<!-- wheelSizes&#45;&gt;getUser -->
<g id="edge10" class="edge">
<title>wheelSizes-&gt;getUser</title>
<path fill="none" stroke="#6c8ebf" d="M1985.5613,-189.0237C1943.3846,-183.9971 1901.3384,-175.1505 1888.1397,-159.6 1882.4261,-152.8683 1880.9021,-143.7284 1881.2241,-134.9451"/>
<polygon fill="#6c8ebf" stroke="#6c8ebf" points="1884.7078,-135.2836 1882.3095,-124.9638 1877.7488,-134.5268 1884.7078,-135.2836"/>
<text text-anchor="middle" x="2076.9793" y="-147" font-family="Times,serif" font-size="14.00" fill="#000000">Размер колёс пользователя</text>
</g>
<!-- getPoints -->
<g id="node13" class="node">
<title>getPoints</title>
<polygon fill="#b6d7f0" stroke="#000000" points="3646.4025,-124.8 3454.3297,-124.8 3454.3297,-88.8 3646.4025,-88.8 3646.4025,-124.8"/>
<text text-anchor="middle" x="3550.3661" y="-102.6" font-family="Times,serif" font-size="14.00" fill="#000000">Получить точки</text>
</g>
<!-- wheelSizes&#45;&gt;getPoints -->
<g id="edge12" class="edge">
<title>wheelSizes-&gt;getPoints</title>
<path fill="none" stroke="#6c8ebf" d="M2191.2283,-184.284C2216.9548,-178.9569 2243.8899,-171.1223 2267.3661,-159.6 2277.6008,-154.5767 2276.1275,-146.9363 2286.7517,-142.8 2340.2021,-121.9902 3149.2376,-111.1586 3443.9838,-107.8874"/>
<polygon fill="#6c8ebf" stroke="#6c8ebf" points="3444.289,-111.3843 3454.2498,-107.7742 3444.2118,-104.3848 3444.289,-111.3843"/>
<text text-anchor="middle" x="2498.6733" y="-147" font-family="Times,serif" font-size="14.00" fill="#000000">Поддерживаемые размеры колёс</text>
</g>
<!-- carTypes -->
<g id="node11" class="node">
<title>carTypes</title>
<polygon fill="#85bbf0" stroke="#000000" points="3023.9025,-213.6 2838.8297,-213.6 2838.8297,-177.6 3023.9025,-177.6 3023.9025,-213.6"/>
<text text-anchor="middle" x="2931.3661" y="-191.4" font-family="Times,serif" font-size="14.00" fill="#000000">Типы машин</text>
</g>
<!-- carTypes&#45;&gt;getUser -->
<g id="edge11" class="edge">
<title>carTypes-&gt;getUser</title>
<path fill="none" stroke="#6c8ebf" d="M2838.6575,-183.55C2796.912,-177.1372 2752.8586,-168.7033 2734.2171,-159.6 2724.1327,-154.6754 2725.7642,-147.0219 2715.3661,-142.8 2656.118,-118.7437 2279.8935,-110.7379 2055.4823,-108.0914"/>
<polygon fill="#6c8ebf" stroke="#6c8ebf" points="2055.2842,-104.589 2045.2444,-107.9731 2055.2033,-111.5885 2055.2842,-104.589"/>
<text text-anchor="middle" x="2916.4406" y="-147" font-family="Times,serif" font-size="14.00" fill="#000000">Тип машины пользователя</text>
</g>
<!-- carTypes&#45;&gt;getPoints -->
<g id="edge13" class="edge">
<title>carTypes-&gt;getPoints</title>
<path fill="none" stroke="#6c8ebf" d="M3024.191,-179.5584C3050.3676,-174.1534 3078.6994,-167.4605 3104.3661,-159.6 3123.181,-153.8379 3126.2107,-147.4569 3145.3291,-142.8 3199.9546,-129.4944 3343.402,-118.8097 3443.9973,-112.6354"/>
<polygon fill="#6c8ebf" stroke="#6c8ebf" points="3444.4353,-116.1153 3454.2047,-112.0153 3444.0108,-109.1282 3444.4353,-116.1153"/>
<text text-anchor="middle" x="3344.8846" y="-147" font-family="Times,serif" font-size="14.00" fill="#000000">Поддерживаемые типы машин</text>
</g>
<!-- facilities -->
<g id="node14" class="node">
<title>facilities</title>
<polygon fill="#85bbf0" stroke="#000000" points="3606.0272,-213.6 3494.705,-213.6 3494.705,-177.6 3606.0272,-177.6 3606.0272,-213.6"/>
<text text-anchor="middle" x="3550.3661" y="-191.4" font-family="Times,serif" font-size="14.00" fill="#000000">Услуги</text>
</g>
<!-- facilities&#45;&gt;getPoints -->
<g id="edge14" class="edge">
<title>facilities-&gt;getPoints</title>
<path fill="none" stroke="#6c8ebf" d="M3550.3661,-177.2006C3550.3661,-165.0949 3550.3661,-149.0076 3550.3661,-135.2674"/>
<polygon fill="#6c8ebf" stroke="#6c8ebf" points="3553.8662,-134.872 3550.3661,-124.872 3546.8662,-134.8721 3553.8662,-134.872"/>
<text text-anchor="middle" x="3635.134" y="-147" font-family="Times,serif" font-size="14.00" fill="#000000">Услуги точки</text>
</g>
<!-- tags -->
<g id="node15" class="node">
<title>tags</title>
<polygon fill="#85bbf0" stroke="#000000" points="3785.0274,-213.6 3701.7048,-213.6 3701.7048,-177.6 3785.0274,-177.6 3785.0274,-213.6"/>
<text text-anchor="middle" x="3743.3661" y="-191.4" font-family="Times,serif" font-size="14.00" fill="#000000">Тэги</text>
</g>
<!-- tags&#45;&gt;getPoints -->
<g id="edge15" class="edge">
<title>tags-&gt;getPoints</title>
<path fill="none" stroke="#6c8ebf" d="M3740.2522,-177.3506C3737.3261,-165.7781 3731.7671,-151.415 3721.3661,-142.8 3710.498,-133.7981 3684.9463,-126.5846 3656.8184,-121.0485"/>
<polygon fill="#6c8ebf" stroke="#6c8ebf" points="3657.2564,-117.5696 3646.7817,-119.1601 3655.962,-124.4489 3657.2564,-117.5696"/>
<text text-anchor="middle" x="3804.134" y="-147" font-family="Times,serif" font-size="14.00" fill="#000000">Тэги точки</text>
</g>
<!-- mapPoints -->
<g id="node16" class="node">
<title>mapPoints</title>
<polygon fill="#85bbf0" stroke="#000000" points="4025.4559,-213.6 3803.2763,-213.6 3803.2763,-177.6 4025.4559,-177.6 4025.4559,-213.6"/>
<text text-anchor="middle" x="3914.3661" y="-191.4" font-family="Times,serif" font-size="14.00" fill="#000000">Точки на карте</text>
</g>
<!-- mapPoints&#45;&gt;getPoints -->
<g id="edge16" class="edge">
<title>mapPoints-&gt;getPoints</title>
<path fill="none" stroke="#6c8ebf" d="M3907.2969,-177.5788C3901.6174,-165.6365 3892.4208,-150.7538 3879.3661,-142.8 3860.4964,-131.3033 3745.5208,-120.6251 3656.7456,-113.9326"/>
<polygon fill="#6c8ebf" stroke="#6c8ebf" points="3656.8378,-110.4298 3646.6052,-113.1767 3656.3174,-117.4105 3656.8378,-110.4298"/>
<text text-anchor="middle" x="3980.3486" y="-147" font-family="Times,serif" font-size="14.00" fill="#000000">Спиок точек</text>
</g>
</g>
</svg>