<svg width="1696" height="1171" viewBox="0 0 1272 878.25" xmlns="http://www.w3.org/2000/svg" xmlns:xlink="http://www.w3.org/1999/xlink">
<g id="graph0" class="graph" transform="translate(219.83793328388015,705.3575541084991) scale(0.8258776649357191)">
<polygon fill="white" stroke="transparent" points="-4,4 -4,-739.1 1081.48,-739.1 1081.48,4 -4,4"/>
<!-- От -->
<g id="node1" class="node">
<title>Отправить фид в 2Гис</title>
<polygon fill="#b6d7f0" stroke="black" points="834.25,-172.65 689.25,-172.65 689.25,-136.65 834.25,-136.65 834.25,-172.65"/>
<text text-anchor="middle" x="761.75" y="-150.45" font-family="Times,serif" font-size="14.00">Отправить фид в 2Гис</text>
</g>
<!--  фид в 2Гис -->
<g id="node2" class="node">
<title>Обновить фид для Яндекса</title>
<polygon fill="#b6d7f0" stroke="black" points="703.25,-486.76 530.25,-486.76 530.25,-450.76 703.25,-450.76 703.25,-486.76"/>
<text text-anchor="middle" x="616.75" y="-464.56" font-family="Times,serif" font-size="14.00">Обновить фид для Яндекса</text>
</g>
<!--  фид для Яндекса -->
<g id="node3" class="node">
<title>Выдать фид Яндекса</title>
<polygon fill="#b6d7f0" stroke="black" points="1077.48,-494.76 942.48,-494.76 942.48,-458.76 1077.48,-458.76 1077.48,-494.76"/>
<text text-anchor="middle" x="1009.98" y="-472.56" font-family="Times,serif" font-size="14.00">Выдать фид Яндекса</text>
</g><g id="edge1" class="edge">
<title>Отправить фид в 2Гис-&gt;Интеграция с 2Гис</title>
<path fill="none" stroke="#b85450" d="M834.36,-143.8C853.21,-140.98 873.55,-137.94 892.49,-135.11"/>
<polygon fill="#b85450" stroke="#b85450" points="893.18,-138.55 902.56,-133.61 892.15,-131.63 893.18,-138.55"/>
</g>
<!-- Загрузить  -->
<g id="node4" class="node">
<title>Загрузить изображение</title>
<polygon fill="#b6d7f0" stroke="black" points="227.54,-611.34 68.54,-611.34 68.54,-575.34 227.54,-575.34 227.54,-611.34"/>
<text text-anchor="middle" x="148.04" y="-589.14" font-family="Times,serif" font-size="14.00">Загрузить изображение</text>
</g>
<!--  изображение -->
<g id="node5" class="node">
<title>Скачать изображение</title>
<polygon fill="#b6d7f0" stroke="black" points="645.25,-631.47 500.25,-631.47 500.25,-595.47 645.25,-595.47 645.25,-631.47"/>
<text text-anchor="middle" x="572.75" y="-609.27" font-family="Times,serif" font-size="14.00">Скачать изображение</text>
</g>
<!-- ть изображение -->
<g id="node6" class="node">
<title>Выдать список изображений организации</title>
<polygon fill="#b6d7f0" stroke="black" points="264.25,-381.45 0.25,-381.45 0.25,-345.45 264.25,-345.45 264.25,-381.45"/>
<text text-anchor="middle" x="132.25" y="-359.25" font-family="Times,serif" font-size="14.00">Выдать список изображений организации</text>
</g><g id="edge2" class="edge">
<title>Обновить фид для Яндекса-&gt;Фид Яндекса</title>
<path fill="none" stroke="#b85450" d="M703.27,-457.02C722.3,-454.44 741.95,-451.77 759.31,-449.42"/>
<polygon fill="#b85450" stroke="#b85450" points="759.81,-452.88 769.25,-448.07 758.87,-445.95 759.81,-452.88"/>
</g>
<!--  изображение -->
<g id="node7" class="node">
<title>Удалить изображение</title>
<polygon fill="#b6d7f0" stroke="black" points="435.7,-735.1 290.7,-735.1 290.7,-699.1 435.7,-699.1 435.7,-735.1"/>
<text text-anchor="middle" x="363.2" y="-712.9" font-family="Times,serif" font-size="14.00">Удалить изображение</text>
</g>
<!-- Пере -->
<g id="node8" class="node">
<title>Перегенерировать фид</title>
<polygon fill="#b6d7f0" stroke="black" points="570.82,-251.51 418.82,-251.51 418.82,-215.51 570.82,-215.51 570.82,-251.51"/>
<text text-anchor="middle" x="494.82" y="-229.31" font-family="Times,serif" font-size="14.00">Перегенерировать фид</text>
</g>
<!-- Ин -->
<g id="node9" class="node">
<title>Интеграция с 2Гис</title>
<polygon fill="#85bbf0" stroke="black" points="1030.88,-142 902.88,-142 902.88,-106 1030.88,-106 1030.88,-142"/>
<text text-anchor="middle" x="966.88" y="-119.8" font-family="Times,serif" font-size="14.00">Интеграция с 2Гис</text>
</g>
<!-- Интеграция 2Гис -->
<g id="node10" class="node">
<title>Фид Яндекса</title>
<polygon fill="#85bbf0" stroke="black" points="858.5,-460 769.5,-460 769.5,-424 858.5,-424 858.5,-460"/>
<text text-anchor="middle" x="814" y="-437.8" font-family="Times,serif" font-size="14.00">Фид Яндекса</text>
</g>
<!-- И -->
<g id="node11" class="node">
<title>Изображения</title>
<polygon fill="#85bbf0" stroke="black" points="411.99,-483.7 318.99,-483.7 318.99,-447.7 411.99,-447.7 411.99,-483.7"/>
<text text-anchor="middle" x="365.49" y="-461.5" font-family="Times,serif" font-size="14.00">Изображения</text>
</g><g id="edge3" class="edge">
<title>Загрузить изображение-&gt;Изображения</title>
<path fill="none" stroke="#b85450" d="M178.74,-575.33C217.32,-552.68 283.61,-513.77 325.95,-488.92"/>
<polygon fill="#b85450" stroke="#b85450" points="327.75,-491.92 334.61,-483.84 324.21,-485.88 327.75,-491.92"/>
</g>
<!-- Организа -->
<!-- Организации -->
<g id="node12" class="node">
<title>Организации</title>
<polygon fill="#85bbf0" stroke="black" points="387.37,-46.52 294.37,-46.52 294.37,-10.52 387.37,-10.52 387.37,-46.52"/>
<text text-anchor="middle" x="340.87" y="-24.32" font-family="Times,serif" font-size="14.00">Организации</text>
</g>
<!-- До -->
<!-- Дополнительная информация -->
<!-- Дополнительная информация -->
<!-- Дополнительная информация -->
<!-- Организации&#45;&gt;Перегенерировать фид -->
<g id="edge10" class="edge">
<title>Организации-&gt;Перегенерировать фид</title>
<path fill="none" stroke="#6c8ebf" d="M354.53,-46.72C381.86,-83.11 443.36,-165 475.08,-207.23"/>
<polygon fill="#6c8ebf" stroke="#6c8ebf" points="472.38,-209.47 481.18,-215.36 477.98,-205.26 472.38,-209.47"/>
</g>
<!-- Дополнительная информация -->
<g id="node13" class="node">
<title>Дополнительная информация</title>
<polygon fill="#85bbf0" stroke="black" points="843.32,-269.95 656.32,-269.95 656.32,-233.95 843.32,-233.95 843.32,-269.95"/>
<text text-anchor="middle" x="749.82" y="-247.75" font-family="Times,serif" font-size="14.00">Дополнительная информация</text>
</g>
<!-- Тем -->
<!-- Тема Сгенерирован новый фид -->
<!-- Тема Сгенерирован новый фид -->
<!-- Тема Сгенерирован новый фид -->
<!-- Тема Сгенерирован новый фид -->
<!-- Тема Сгенерирован новый фид -->
<g id="node14" class="node">
<title>Тема Сгенерирован новый фид</title>
<polygon fill="#85bbf0" stroke="black" points="706.85,-36 512.85,-36 512.85,0 706.85,0 706.85,-36"/>
<text text-anchor="middle" x="609.85" y="-13.8" font-family="Times,serif" font-size="14.00">Тема Сгенерирован новый фид</text>
</g><g id="edge4" class="edge">
<title>Удалить изображение-&gt;Изображения</title>
<path fill="none" stroke="#b85450" d="M363.36,-699.02C363.76,-655.82 364.76,-546.33 365.23,-494.17"/>
<polygon fill="#b85450" stroke="#b85450" points="368.74,-493.99 365.33,-483.96 361.74,-493.93 368.74,-493.99"/>
</g>


<g id="edge5" class="edge">
<title>Перегенерировать фид-&gt;Тема Сгенерирован новый фид</title>
<path fill="none" stroke="#b85450" d="M504.43,-215.51C524.64,-177.63 571.66,-89.55 595.47,-44.93"/>
<polygon fill="#b85450" stroke="#b85450" points="598.56,-46.57 600.19,-36.1 592.39,-43.28 598.56,-46.57"/>
</g>
<g id="edge6" class="edge">
<title>Фид Яндекса-&gt;Выдать фид Яндекса</title>
<path fill="none" stroke="rgb(108, 142, 191)" d="M858.96,-449.97C880.62,-453.81 907.21,-458.53 932.02,-462.93"/>
<polygon fill="#6c8ebf" stroke="#6c8ebf" points="931.7,-466.43 942.15,-464.73 932.92,-459.53 931.7,-466.43"/>
</g>
<g id="edge7" class="edge">
<title>Изображения-&gt;Скачать изображение</title>
<path fill="none" stroke="#6c8ebf" d="M390.91,-483.82C428.14,-510.37 497.59,-559.89 539.05,-589.44"/>
<polygon fill="#6c8ebf" stroke="#6c8ebf" points="537.28,-592.47 547.45,-595.43 541.34,-586.78 537.28,-592.47"/>
</g>
<g id="edge8" class="edge">
<title>Изображения-&gt;Выдать список изображений организации</title>
<path fill="none" stroke="#6c8ebf" d="M324.33,-447.66C284.82,-430.34 225.05,-404.13 182.69,-385.57"/>
<polygon fill="#6c8ebf" stroke="#6c8ebf" points="183.96,-382.3 173.39,-381.49 181.15,-388.71 183.96,-382.3"/>
</g>
<g id="edge9" class="edge">
<title>Изображения-&gt;Перегенерировать фид</title>
<path fill="none" stroke="#6c8ebf" d="M375.64,-447.48C398.31,-406.79 453.14,-308.35 479.78,-260.51"/>
<polygon fill="#6c8ebf" stroke="#6c8ebf" points="482.91,-262.09 484.72,-251.65 476.79,-258.68 482.91,-262.09"/>
</g>


<g id="edge11" class="edge">
<title>Дополнительная информация-&gt;Перегенерировать фид</title>
<path fill="none" stroke="#6c8ebf" d="M656.31,-245.19C631.81,-243.41 605.5,-241.51 581.38,-239.77"/>
<polygon fill="#6c8ebf" stroke="#6c8ebf" points="581.41,-236.26 571.19,-239.03 580.91,-243.24 581.41,-236.26"/>
</g>
</g>
</svg>