<?xml version="1.0" encoding="UTF-8" standalone="no"?>
<!DOCTYPE svg PUBLIC "-//W3C//DTD SVG 1.1//EN"
 "http://www.w3.org/Graphics/SVG/1.1/DTD/svg11.dtd">
<!-- Generated by graphviz version 7.0.4 (0)
 -->
<!-- Pages: 1 -->
<svg width="2228pt" height="1764pt"
 viewBox="0.00 0.00 2228.47 1763.78" xmlns="http://www.w3.org/2000/svg" xmlns:xlink="http://www.w3.org/1999/xlink">
<g id="graph0" class="graph" transform="scale(1 1) rotate(0) translate(4 1759.78)">
<polygon fill="white" stroke="none" points="-4,4 -4,-1759.78 2224.47,-1759.78 2224.47,4 -4,4"/>
<!-- requestOtp -->
<g id="node1" class="node">
<title>requestOtp</title>
<polygon fill="#b6d7f0" stroke="black" points="638.15,-689.51 512.15,-689.51 512.15,-653.51 638.15,-653.51 638.15,-689.51"/>
<text text-anchor="middle" x="575.15" y="-667.81" font-family="Times,serif" font-size="14.00">Запросить OTP</text>
</g>
<!-- smsSender -->
<g id="node2" class="node">
<title>smsSender</title>
<polygon fill="#85bbf0" stroke="black" points="927.31,-950.67 745.31,-950.67 745.31,-914.67 927.31,-914.67 927.31,-950.67"/>
<text text-anchor="middle" x="836.31" y="-928.97" font-family="Times,serif" font-size="14.00">Сервис отправки СМС</text>
</g>
<!-- requestOtp&#45;&gt;smsSender -->
<g id="edge1" class="edge">
<title>requestOtp&#45;&gt;smsSender</title>
<path fill="none" stroke="#b85450" d="M593.51,-689.87C639.03,-735.39 757.19,-853.55 810.06,-906.43"/>
<polygon fill="#b85450" stroke="#b85450" points="807.35,-908.66 816.89,-913.26 812.3,-903.71 807.35,-908.66"/>
<text text-anchor="middle" x="642.79" y="-801.95" font-family="Times,serif" font-size="14.00">Отправить СМС</text>
</g>
<!-- otps -->
<g id="node3" class="node">
<title>otps</title>
<polygon fill="#85bbf0" stroke="black" points="902.31,-689.51 770.31,-689.51 770.31,-653.51 902.31,-653.51 902.31,-689.51"/>
<text text-anchor="middle" x="836.31" y="-667.81" font-family="Times,serif" font-size="14.00">Коллекция OTP</text>
</g>
<!-- requestOtp&#45;&gt;otps -->
<g id="edge2" class="edge">
<title>requestOtp&#45;&gt;otps</title>
<path fill="none" stroke="#b85450" d="M638.37,-671.51C674.64,-671.51 720.46,-671.51 758.88,-671.51"/>
<polygon fill="#b85450" stroke="#b85450" points="758.51,-675.01 768.51,-671.51 758.51,-668.01 758.51,-675.01"/>
<text text-anchor="middle" x="698.62" y="-660.31" font-family="Times,serif" font-size="14.00">Сохранить OTP</text>
</g>
<!-- otpLogin -->
<g id="node4" class="node">
<title>otpLogin</title>
<polygon fill="#b6d7f0" stroke="black" points="647.82,-36 458.82,-36 458.82,0 647.82,0 647.82,-36"/>
<text text-anchor="middle" x="553.32" y="-14.3" font-family="Times,serif" font-size="14.00">Получить токен из OTP</text>
</g>
<!-- otps&#45;&gt;otpLogin -->
<g id="edge3" class="edge">
<title>otps&#45;&gt;otpLogin</title>
<path fill="none" stroke="#6c8ebf" d="M828.44,-653.35C789.18,-562.67 614.29,-158.81 565.81,-46.86"/>
<polygon fill="#6c8ebf" stroke="#6c8ebf" points="569.06,-45.56 561.88,-37.77 562.64,-48.34 569.06,-45.56"/>
<text text-anchor="middle" x="617.13" y="-353.9" font-family="Times,serif" font-size="14.00">Флаг валидности OTP</text>
</g>
<!-- tokens -->
<g id="node6" class="node">
<title>tokens</title>
<polygon fill="#85bbf0" stroke="black" points="411.32,-225.97 250.32,-225.97 250.32,-189.97 411.32,-189.97 411.32,-225.97"/>
<text text-anchor="middle" x="330.82" y="-204.27" font-family="Times,serif" font-size="14.00">Коллекция токенов</text>
</g>
<!-- otpLogin&#45;&gt;tokens -->
<g id="edge4" class="edge">
<title>otpLogin&#45;&gt;tokens</title>
<path fill="none" stroke="#b85450" d="M531.98,-36.22C492.22,-70.17 406.66,-143.22 360.99,-182.21"/>
<polygon fill="#b85450" stroke="#b85450" points="358.9,-179.39 353.57,-188.55 363.45,-184.72 358.9,-179.39"/>
<text text-anchor="middle" x="331.99" y="-113.01" font-family="Times,serif" font-size="14.00">Сохранить токен пользователя</text>
</g>
<!-- passLogin -->
<g id="node5" class="node">
<title>passLogin</title>
<polygon fill="#b6d7f0" stroke="black" points="431.3,-554.81 164.3,-554.81 164.3,-518.81 431.3,-518.81 431.3,-554.81"/>
<text text-anchor="middle" x="297.8" y="-533.11" font-family="Times,serif" font-size="14.00">Получить токен из логина/пароля</text>
</g>
<!-- passLogin&#45;&gt;tokens -->
<g id="edge6" class="edge">
<title>passLogin&#45;&gt;tokens</title>
<path fill="none" stroke="#b85450" d="M299.62,-518.66C305.05,-464.66 321.12,-304.64 327.83,-237.82"/>
<polygon fill="#b85450" stroke="#b85450" points="331.3,-238.27 328.81,-227.98 324.33,-237.58 331.3,-238.27"/>
<text text-anchor="middle" x="199.22" y="-382.04" font-family="Times,serif" font-size="14.00">Сохранить токен пользователя</text>
</g>
<!-- users -->
<g id="node7" class="node">
<title>users</title>
<polygon fill="#85bbf0" stroke="black" points="487.5,-911.02 277.5,-911.02 277.5,-875.02 487.5,-875.02 487.5,-911.02"/>
<text text-anchor="middle" x="382.5" y="-889.32" font-family="Times,serif" font-size="14.00">Коллкеция пользователей</text>
</g>
<!-- users&#45;&gt;passLogin -->
<g id="edge5" class="edge">
<title>users&#45;&gt;passLogin</title>
<path fill="none" stroke="#6c8ebf" d="M378.18,-874.87C364.45,-817.1 321.67,-637.2 304.77,-566.12"/>
<polygon fill="#6c8ebf" stroke="#6c8ebf" points="308.18,-565.32 302.46,-556.4 301.37,-566.94 308.18,-565.32"/>
<text text-anchor="middle" x="178.98" y="-724.3" font-family="Times,serif" font-size="14.00">Аутентификационные данные пользователя</text>
</g>
<!-- getUser -->
<g id="node12" class="node">
<title>getUser</title>
<polygon fill="#b6d7f0" stroke="black" points="768.67,-1113.57 577.67,-1113.57 577.67,-1077.57 768.67,-1077.57 768.67,-1113.57"/>
<text text-anchor="middle" x="673.17" y="-1091.87" font-family="Times,serif" font-size="14.00">Получить пользователя</text>
</g>
<!-- users&#45;&gt;getUser -->
<g id="edge9" class="edge">
<title>users&#45;&gt;getUser</title>
<path fill="none" stroke="#6c8ebf" d="M408.81,-911.35C461.1,-947.79 578.15,-1029.35 637.38,-1070.63"/>
<polygon fill="#6c8ebf" stroke="#6c8ebf" points="635.26,-1073.42 645.47,-1076.27 639.26,-1067.68 635.26,-1073.42"/>
<text text-anchor="middle" x="416.59" y="-994.79" font-family="Times,serif" font-size="14.00">Информация о пользователе</text>
</g>
<!-- editUser -->
<g id="node8" class="node">
<title>editUser</title>
<polygon fill="#b6d7f0" stroke="black" points="289.96,-1156.82 96.96,-1156.82 96.96,-1120.82 289.96,-1120.82 289.96,-1156.82"/>
<text text-anchor="middle" x="193.46" y="-1135.12" font-family="Times,serif" font-size="14.00">Изменить пользователя</text>
</g>
<!-- editUser&#45;&gt;users -->
<g id="edge7" class="edge">
<title>editUser&#45;&gt;users</title>
<path fill="none" stroke="#b85450" d="M207.67,-1120.35C240.66,-1077.45 322.6,-970.91 361.44,-920.41"/>
<polygon fill="#b85450" stroke="#b85450" points="364.14,-922.63 367.46,-912.57 358.59,-918.37 364.14,-922.63"/>
<text text-anchor="middle" x="167.05" y="-1024.18" font-family="Times,serif" font-size="14.00">Изменить данные пользователя</text>
</g>
<!-- deleteUser -->
<g id="node9" class="node">
<title>deleteUser</title>
<polygon fill="#b6d7f0" stroke="black" points="180,-935.06 0,-935.06 0,-899.06 180,-899.06 180,-935.06"/>
<text text-anchor="middle" x="90" y="-913.36" font-family="Times,serif" font-size="14.00">Удалить пользователя</text>
</g>
<!-- deleteUser&#45;&gt;users -->
<g id="edge8" class="edge">
<title>deleteUser&#45;&gt;users</title>
<path fill="none" stroke="#b85450" d="M180.15,-909.65C207.19,-907.43 237.25,-904.96 265.75,-902.61"/>
<polygon fill="#b85450" stroke="#b85450" points="265.82,-906.12 275.5,-901.81 265.25,-899.14 265.82,-906.12"/>
<text text-anchor="middle" x="377.95" y="-909.93" font-family="Times,serif" font-size="14.00">Установаить флаг удаления пользователя</text>
</g>
<!-- wheelSizes -->
<g id="node10" class="node">
<title>wheelSizes</title>
<polygon fill="#85bbf0" stroke="black" points="976.95,-1322.13 848.95,-1322.13 848.95,-1286.13 976.95,-1286.13 976.95,-1322.13"/>
<text text-anchor="middle" x="912.95" y="-1300.43" font-family="Times,serif" font-size="14.00">Размеры колёс</text>
</g>
<!-- wheelSizes&#45;&gt;getUser -->
<g id="edge10" class="edge">
<title>wheelSizes&#45;&gt;getUser</title>
<path fill="none" stroke="#6c8ebf" d="M892.09,-1285.99C849.4,-1248.86 751.95,-1164.1 702.75,-1121.3"/>
<polygon fill="#6c8ebf" stroke="#6c8ebf" points="705.13,-1118.73 695.29,-1114.81 700.54,-1124.02 705.13,-1118.73"/>
<text text-anchor="middle" x="694.92" y="-1207.45" font-family="Times,serif" font-size="14.00">Размер колёс пользователя</text>
</g>
<!-- getPoints -->
<g id="node13" class="node">
<title>getPoints</title>
<polygon fill="#b6d7f0" stroke="black" points="1301.61,-1324.32 1167.61,-1324.32 1167.61,-1288.32 1301.61,-1288.32 1301.61,-1324.32"/>
<text text-anchor="middle" x="1234.61" y="-1302.62" font-family="Times,serif" font-size="14.00">Получить точки</text>
</g>
<!-- wheelSizes&#45;&gt;getPoints -->
<g id="edge12" class="edge">
<title>wheelSizes&#45;&gt;getPoints</title>
<path fill="none" stroke="#6c8ebf" d="M977.27,-1304.57C1028.71,-1304.92 1101.04,-1305.41 1155.93,-1305.79"/>
<polygon fill="#6c8ebf" stroke="#6c8ebf" points="1155.82,-1309.28 1165.85,-1305.85 1155.87,-1302.28 1155.82,-1309.28"/>
<text text-anchor="middle" x="1066.6" y="-1293.98" font-family="Times,serif" font-size="14.00">Поддерживаемые размеры колёс</text>
</g>
<!-- carTypes -->
<g id="node11" class="node">
<title>carTypes</title>
<polygon fill="#85bbf0" stroke="black" points="1052.02,-1129.01 942.02,-1129.01 942.02,-1093.01 1052.02,-1093.01 1052.02,-1129.01"/>
<text text-anchor="middle" x="997.02" y="-1107.31" font-family="Times,serif" font-size="14.00">Типы машин</text>
</g>
<!-- carTypes&#45;&gt;getUser -->
<g id="edge11" class="edge">
<title>carTypes&#45;&gt;getUser</title>
<path fill="none" stroke="#6c8ebf" d="M941.72,-1108.38C897.53,-1106.27 834.27,-1103.25 780.24,-1100.68"/>
<polygon fill="#6c8ebf" stroke="#6c8ebf" points="780.53,-1097.19 770.38,-1100.21 780.2,-1104.18 780.53,-1097.19"/>
<text text-anchor="middle" x="860.98" y="-1093.33" font-family="Times,serif" font-size="14.00">Тип машины пользователя</text>
</g>
<!-- carTypes&#45;&gt;getPoints -->
<g id="edge13" class="edge">
<title>carTypes&#45;&gt;getPoints</title>
<path fill="none" stroke="#6c8ebf" d="M1019.37,-1129.39C1061.91,-1164.36 1154.61,-1240.56 1203.31,-1280.59"/>
<polygon fill="#6c8ebf" stroke="#6c8ebf" points="1201.03,-1283.25 1210.98,-1286.89 1205.48,-1277.84 1201.03,-1283.25"/>
<text text-anchor="middle" x="997.34" y="-1208.79" font-family="Times,serif" font-size="14.00">Поддерживаемые типы машин</text>
</g>
<!-- facilities -->
<g id="node14" class="node">
<title>facilities</title>
<polygon fill="#85bbf0" stroke="black" points="1424.22,-1057.79 1356.22,-1057.79 1356.22,-1021.79 1424.22,-1021.79 1424.22,-1057.79"/>
<text text-anchor="middle" x="1390.22" y="-1036.09" font-family="Times,serif" font-size="14.00">Услуги</text>
</g>
<!-- facilities&#45;&gt;getPoints -->
<g id="edge14" class="edge">
<title>facilities&#45;&gt;getPoints</title>
<path fill="none" stroke="#6c8ebf" d="M1379.53,-1058.11C1352.82,-1103.85 1283.07,-1223.33 1251.08,-1278.12"/>
<polygon fill="#6c8ebf" stroke="#6c8ebf" points="1248.17,-1276.16 1246.15,-1286.57 1254.21,-1279.69 1248.17,-1276.16"/>
<text text-anchor="middle" x="1265.8" y="-1171.92" font-family="Times,serif" font-size="14.00">Услуги точки</text>
</g>
<!-- tags -->
<g id="node15" class="node">
<title>tags</title>
<polygon fill="#85bbf0" stroke="black" points="1181.17,-1625.61 1127.17,-1625.61 1127.17,-1589.61 1181.17,-1589.61 1181.17,-1625.61"/>
<text text-anchor="middle" x="1154.17" y="-1603.91" font-family="Times,serif" font-size="14.00">Тэги</text>
</g>
<!-- tags&#45;&gt;getPoints -->
<g id="edge15" class="edge">
<title>tags&#45;&gt;getPoints</title>
<path fill="none" stroke="#6c8ebf" d="M1159.08,-1589.21C1172.6,-1538.56 1210.47,-1396.74 1226.88,-1335.3"/>
<polygon fill="#6c8ebf" stroke="#6c8ebf" points="1230.18,-1336.5 1229.38,-1325.93 1223.42,-1334.69 1230.18,-1336.5"/>
<text text-anchor="middle" x="1152.48" y="-1466.06" font-family="Times,serif" font-size="14.00">Тэги точки</text>
</g>
<!-- mapPoints -->
<g id="node16" class="node">
<title>mapPoints</title>
<polygon fill="#85bbf0" stroke="black" points="1597.94,-1439.55 1468.94,-1439.55 1468.94,-1403.55 1597.94,-1403.55 1597.94,-1439.55"/>
<text text-anchor="middle" x="1533.44" y="-1417.85" font-family="Times,serif" font-size="14.00">Точки на карте</text>
</g>
<!-- mapPoints&#45;&gt;getPoints -->
<g id="edge16" class="edge">
<title>mapPoints&#45;&gt;getPoints</title>
<path fill="none" stroke="#6c8ebf" d="M1485.76,-1403.16C1433.28,-1382.93 1348.92,-1350.4 1292.64,-1328.69"/>
<polygon fill="#6c8ebf" stroke="#6c8ebf" points="1294.13,-1325.52 1283.54,-1325.18 1291.61,-1332.05 1294.13,-1325.52"/>
<text text-anchor="middle" x="1342.7" y="-1369.73" font-family="Times,serif" font-size="14.00">Спиок точек</text>
</g>
<!-- mpModerated -->
<g id="node17" class="node">
<title>mpModerated</title>
<polygon fill="#85bbf0" stroke="black" points="2220.47,-1403.9 1894.47,-1403.9 1894.47,-1367.9 2220.47,-1367.9 2220.47,-1403.9"/>
<text text-anchor="middle" x="2057.47" y="-1382.2" font-family="Times,serif" font-size="14.00">Топик &quot;Точка на карте промодерирована&quot;</text>
</g>
<!-- createMapPoint -->
<g id="node18" class="node">
<title>createMapPoint</title>
<polygon fill="#b6d7f0" stroke="black" points="1613.92,-1755.78 1492.92,-1755.78 1492.92,-1719.78 1613.92,-1719.78 1613.92,-1755.78"/>
<text text-anchor="middle" x="1553.42" y="-1734.08" font-family="Times,serif" font-size="14.00">Создать точку</text>
</g>
<!-- createMapPoint&#45;&gt;mapPoints -->
<g id="edge17" class="edge">
<title>createMapPoint&#45;&gt;mapPoints</title>
<path fill="none" stroke="#b85450" d="M1552.26,-1719.41C1548.94,-1666.9 1539.4,-1515.81 1535.32,-1451.31"/>
<polygon fill="#b85450" stroke="#b85450" points="1538.82,-1451.24 1534.7,-1441.48 1531.84,-1451.68 1538.82,-1451.24"/>
<text text-anchor="middle" x="1491.29" y="-1589.16" font-family="Times,serif" font-size="14.00">Создать точку</text>
</g>
<!-- editMapPoint -->
<g id="node19" class="node">
<title>editMapPoint</title>
<polygon fill="#b6d7f0" stroke="black" points="1874.42,-1531.79 1739.42,-1531.79 1739.42,-1495.79 1874.42,-1495.79 1874.42,-1531.79"/>
<text text-anchor="middle" x="1806.92" y="-1510.09" font-family="Times,serif" font-size="14.00">Изменить точку</text>
</g>
<!-- editMapPoint&#45;&gt;mapPoints -->
<g id="edge18" class="edge">
<title>editMapPoint&#45;&gt;mapPoints</title>
<path fill="none" stroke="#b85450" d="M1752.23,-1495.34C1707.98,-1480.42 1645.54,-1459.36 1598.68,-1443.55"/>
<polygon fill="#b85450" stroke="#b85450" points="1600.06,-1440.32 1589.47,-1440.44 1597.82,-1446.96 1600.06,-1440.32"/>
<text text-anchor="middle" x="1615.96" y="-1473.25" font-family="Times,serif" font-size="14.00">Изменить точку</text>
</g>
<!-- editMapPoint&#45;&gt;mpModerated -->
<g id="edge19" class="edge">
<title>editMapPoint&#45;&gt;mpModerated</title>
<path fill="none" stroke="#b85450" d="M1843.08,-1495.33C1887.4,-1472.71 1962.56,-1434.34 2011.09,-1409.58"/>
<polygon fill="#b85450" stroke="#b85450" points="2012.65,-1412.71 2019.97,-1405.04 2009.47,-1406.47 2012.65,-1412.71"/>
<text text-anchor="middle" x="1745.58" y="-1456.25" font-family="Times,serif" font-size="14.00">Отправить сообщение о прохождении модерации</text>
</g>
<!-- deleteMapPoint -->
<g id="node20" class="node">
<title>deleteMapPoint</title>
<polygon fill="#b6d7f0" stroke="black" points="1865.04,-1268.5 1743.04,-1268.5 1743.04,-1232.5 1865.04,-1232.5 1865.04,-1268.5"/>
<text text-anchor="middle" x="1804.04" y="-1246.8" font-family="Times,serif" font-size="14.00">Удалить точку</text>
</g>
<!-- deleteMapPoint&#45;&gt;mapPoints -->
<g id="edge20" class="edge">
<title>deleteMapPoint&#45;&gt;mapPoints</title>
<path fill="none" stroke="#b85450" d="M1774.82,-1268.97C1725.8,-1299.95 1627.01,-1362.4 1572.23,-1397.03"/>
<polygon fill="#b85450" stroke="#b85450" points="1570.4,-1394.05 1563.81,-1402.35 1574.14,-1399.96 1570.4,-1394.05"/>
<text text-anchor="middle" x="1551.52" y="-1336.8" font-family="Times,serif" font-size="14.00">Установить флаг удаления точки</text>
</g>
<!-- deleteMapPoint&#45;&gt;mpModerated -->
<g id="edge21" class="edge">
<title>deleteMapPoint&#45;&gt;mpModerated</title>
<path fill="none" stroke="#b85450" d="M1838.48,-1268.9C1883.71,-1293.07 1963.21,-1335.54 2012.96,-1362.12"/>
<polygon fill="#b85450" stroke="#b85450" points="2011.3,-1365.2 2021.77,-1366.83 2014.6,-1359.03 2011.3,-1365.2"/>
<text text-anchor="middle" x="1744.22" y="-1319.31" font-family="Times,serif" font-size="14.00">Отправить сообщение о прохождении модерации</text>
</g>
</g>
</svg>
