<?xml version="1.0" encoding="UTF-8" standalone="no"?>
<!DOCTYPE svg PUBLIC "-//W3C//DTD SVG 1.1//EN"
 "http://www.w3.org/Graphics/SVG/1.1/DTD/svg11.dtd">
<!-- Generated by graphviz version 7.0.4 (0)
 -->
<!-- Pages: 1 -->
<svg width="2775pt" height="2665pt"
 viewBox="0.00 0.00 2775.15 2665.44" xmlns="http://www.w3.org/2000/svg" xmlns:xlink="http://www.w3.org/1999/xlink">
<g id="graph0" class="graph" transform="scale(1 1) rotate(0) translate(4 2661.44)">
<polygon fill="white" stroke="none" points="-4,4 -4,-2661.44 2771.15,-2661.44 2771.15,4 -4,4"/>
<!-- requestOtp -->
<g id="node1" class="node">
<title>requestOtp</title>
<polygon fill="#b6d7f0" stroke="black" points="365.82,-266.56 239.82,-266.56 239.82,-230.56 365.82,-230.56 365.82,-266.56"/>
<text text-anchor="middle" x="302.82" y="-244.86" font-family="Times,serif" font-size="14.00">Запросить OTP</text>
</g>
<!-- smsSender -->
<g id="node2" class="node">
<title>smsSender</title>
<polygon fill="#85bbf0" stroke="black" points="182,-36 0,-36 0,0 182,0 182,-36"/>
<text text-anchor="middle" x="91" y="-14.3" font-family="Times,serif" font-size="14.00">Сервис отправки СМС</text>
</g>
<!-- requestOtp&#45;&gt;smsSender -->
<g id="edge1" class="edge">
<title>requestOtp&#45;&gt;smsSender</title>
<path fill="none" stroke="#b85450" d="M285.84,-230.08C248.41,-189.34 158.68,-91.67 115.3,-44.45"/>
<polygon fill="#b85450" stroke="#b85450" points="118.13,-42.36 108.79,-37.36 112.97,-47.09 118.13,-42.36"/>
<text text-anchor="middle" x="141.57" y="-141.07" font-family="Times,serif" font-size="14.00">Отправить СМС</text>
</g>
<!-- otps -->
<g id="node3" class="node">
<title>otps</title>
<polygon fill="#85bbf0" stroke="black" points="635.6,-431.29 503.6,-431.29 503.6,-395.29 635.6,-395.29 635.6,-431.29"/>
<text text-anchor="middle" x="569.6" y="-409.59" font-family="Times,serif" font-size="14.00">Коллекция OTP</text>
</g>
<!-- requestOtp&#45;&gt;otps -->
<g id="edge2" class="edge">
<title>requestOtp&#45;&gt;otps</title>
<path fill="none" stroke="#b85450" d="M332.65,-266.98C381.03,-296.85 476.62,-355.88 530.42,-389.1"/>
<polygon fill="#b85450" stroke="#b85450" points="528.33,-391.92 538.67,-394.19 532,-385.96 528.33,-391.92"/>
<text text-anchor="middle" x="375.53" y="-331.84" font-family="Times,serif" font-size="14.00">Сохранить OTP</text>
</g>
<!-- otpLogin -->
<g id="node4" class="node">
<title>otpLogin</title>
<polygon fill="#b6d7f0" stroke="black" points="940.55,-583.43 751.55,-583.43 751.55,-547.43 940.55,-547.43 940.55,-583.43"/>
<text text-anchor="middle" x="846.05" y="-561.73" font-family="Times,serif" font-size="14.00">Получить токен из OTP</text>
</g>
<!-- otps&#45;&gt;otpLogin -->
<g id="edge3" class="edge">
<title>otps&#45;&gt;otpLogin</title>
<path fill="none" stroke="#6c8ebf" d="M602.94,-431.64C652.97,-459.17 747.44,-511.16 802.74,-541.59"/>
<polygon fill="#6c8ebf" stroke="#6c8ebf" points="800.81,-544.53 811.26,-546.28 804.19,-538.4 800.81,-544.53"/>
<text text-anchor="middle" x="622.84" y="-490.42" font-family="Times,serif" font-size="14.00">Флаг валидности OTP</text>
</g>
<!-- tokens -->
<g id="node6" class="node">
<title>tokens</title>
<polygon fill="#85bbf0" stroke="black" points="1223.67,-702.88 1062.67,-702.88 1062.67,-666.88 1223.67,-666.88 1223.67,-702.88"/>
<text text-anchor="middle" x="1143.17" y="-681.18" font-family="Times,serif" font-size="14.00">Коллекция токенов</text>
</g>
<!-- otpLogin&#45;&gt;tokens -->
<g id="edge4" class="edge">
<title>otpLogin&#45;&gt;tokens</title>
<path fill="none" stroke="#b85450" d="M891.82,-583.83C944.28,-604.92 1030.26,-639.49 1086.79,-662.22"/>
<polygon fill="#b85450" stroke="#b85450" points="1085.35,-665.41 1095.94,-665.89 1087.96,-658.92 1085.35,-665.41"/>
<text text-anchor="middle" x="874.81" y="-626.83" font-family="Times,serif" font-size="14.00">Сохранить токен пользователя</text>
</g>
<!-- passLogin -->
<g id="node5" class="node">
<title>passLogin</title>
<polygon fill="#b6d7f0" stroke="black" points="1589.94,-809.83 1322.94,-809.83 1322.94,-773.83 1589.94,-773.83 1589.94,-809.83"/>
<text text-anchor="middle" x="1456.44" y="-788.13" font-family="Times,serif" font-size="14.00">Получить токен из логина/пароля</text>
</g>
<!-- passLogin&#45;&gt;tokens -->
<g id="edge6" class="edge">
<title>passLogin&#45;&gt;tokens</title>
<path fill="none" stroke="#b85450" d="M1402.59,-773.44C1348.6,-755.01 1265.44,-726.62 1207.9,-706.98"/>
<polygon fill="#b85450" stroke="#b85450" points="1209.13,-703.7 1198.53,-703.78 1206.87,-710.33 1209.13,-703.7"/>
<text text-anchor="middle" x="1190.74" y="-744.01" font-family="Times,serif" font-size="14.00">Сохранить токен пользователя</text>
</g>
<!-- users -->
<g id="node7" class="node">
<title>users</title>
<polygon fill="#85bbf0" stroke="black" points="1919.19,-851.93 1709.19,-851.93 1709.19,-815.93 1919.19,-815.93 1919.19,-851.93"/>
<text text-anchor="middle" x="1814.19" y="-830.23" font-family="Times,serif" font-size="14.00">Коллкеция пользователей</text>
</g>
<!-- users&#45;&gt;passLogin -->
<g id="edge5" class="edge">
<title>users&#45;&gt;passLogin</title>
<path fill="none" stroke="#6c8ebf" d="M1708.79,-821.53C1675.17,-817.57 1637.36,-813.12 1601.43,-808.89"/>
<polygon fill="#6c8ebf" stroke="#6c8ebf" points="1602.2,-805.46 1591.86,-807.77 1601.38,-812.41 1602.2,-805.46"/>
<text text-anchor="middle" x="1492.61" y="-819.01" font-family="Times,serif" font-size="14.00">Аутентификационные данные пользователя</text>
</g>
<!-- getUser -->
<g id="node12" class="node">
<title>getUser</title>
<polygon fill="#b6d7f0" stroke="black" points="2058.41,-1176.6 1867.41,-1176.6 1867.41,-1140.6 2058.41,-1140.6 2058.41,-1176.6"/>
<text text-anchor="middle" x="1962.91" y="-1154.9" font-family="Times,serif" font-size="14.00">Получить пользователя</text>
</g>
<!-- users&#45;&gt;getUser -->
<g id="edge9" class="edge">
<title>users&#45;&gt;getUser</title>
<path fill="none" stroke="#6c8ebf" d="M1822.61,-852.32C1847.36,-906.34 1919.97,-1064.85 1949.84,-1130.07"/>
<polygon fill="#6c8ebf" stroke="#6c8ebf" points="1946.61,-1131.4 1953.95,-1139.04 1952.97,-1128.49 1946.61,-1131.4"/>
<text text-anchor="middle" x="1779.73" y="-994.99" font-family="Times,serif" font-size="14.00">Информация о пользователе</text>
</g>
<!-- editUser -->
<g id="node8" class="node">
<title>editUser</title>
<polygon fill="#b6d7f0" stroke="black" points="2189.56,-611.69 1996.56,-611.69 1996.56,-575.69 2189.56,-575.69 2189.56,-611.69"/>
<text text-anchor="middle" x="2093.06" y="-589.99" font-family="Times,serif" font-size="14.00">Изменить пользователя</text>
</g>
<!-- editUser&#45;&gt;users -->
<g id="edge7" class="edge">
<title>editUser&#45;&gt;users</title>
<path fill="none" stroke="#b85450" d="M2071.64,-612.14C2022.25,-654.69 1900.28,-759.77 1843.79,-808.44"/>
<polygon fill="#b85450" stroke="#b85450" points="1841.74,-805.58 1836.45,-814.76 1846.31,-810.88 1841.74,-805.58"/>
<text text-anchor="middle" x="1840.21" y="-714.09" font-family="Times,serif" font-size="14.00">Изменить данные пользователя</text>
</g>
<!-- deleteUser -->
<g id="node9" class="node">
<title>deleteUser</title>
<polygon fill="#b6d7f0" stroke="black" points="1937.44,-516.11 1757.44,-516.11 1757.44,-480.11 1937.44,-480.11 1937.44,-516.11"/>
<text text-anchor="middle" x="1847.44" y="-494.41" font-family="Times,serif" font-size="14.00">Удалить пользователя</text>
</g>
<!-- deleteUser&#45;&gt;users -->
<g id="edge8" class="edge">
<title>deleteUser&#45;&gt;users</title>
<path fill="none" stroke="#b85450" d="M1845.65,-516.16C1840.21,-571.17 1823.79,-737.03 1817.09,-804.71"/>
<polygon fill="#b85450" stroke="#b85450" points="1813.64,-803.99 1816.14,-814.28 1820.61,-804.68 1813.64,-803.99"/>
<text text-anchor="middle" x="1676.37" y="-664.23" font-family="Times,serif" font-size="14.00">Установаить флаг удаления пользователя</text>
</g>
<!-- wheelSizes -->
<g id="node10" class="node">
<title>wheelSizes</title>
<polygon fill="#85bbf0" stroke="black" points="2317.81,-1354.19 2189.81,-1354.19 2189.81,-1318.19 2317.81,-1318.19 2317.81,-1354.19"/>
<text text-anchor="middle" x="2253.81" y="-1332.49" font-family="Times,serif" font-size="14.00">Размеры колёс</text>
</g>
<!-- wheelSizes&#45;&gt;getUser -->
<g id="edge10" class="edge">
<title>wheelSizes&#45;&gt;getUser</title>
<path fill="none" stroke="#6c8ebf" d="M2223.77,-1317.86C2170.94,-1285.6 2061.41,-1218.73 2002.48,-1182.75"/>
<polygon fill="#6c8ebf" stroke="#6c8ebf" points="2004.43,-1179.85 1994.08,-1177.62 2000.79,-1185.82 2004.43,-1179.85"/>
<text text-anchor="middle" x="2010.63" y="-1254.1" font-family="Times,serif" font-size="14.00">Размер колёс пользователя</text>
</g>
<!-- getPoints -->
<g id="node13" class="node">
<title>getPoints</title>
<polygon fill="#b6d7f0" stroke="black" points="2433.22,-1685.9 2299.22,-1685.9 2299.22,-1649.9 2433.22,-1649.9 2433.22,-1685.9"/>
<text text-anchor="middle" x="2366.22" y="-1664.2" font-family="Times,serif" font-size="14.00">Получить точки</text>
</g>
<!-- wheelSizes&#45;&gt;getPoints -->
<g id="edge12" class="edge">
<title>wheelSizes&#45;&gt;getPoints</title>
<path fill="none" stroke="#6c8ebf" d="M2260.01,-1354.5C2278.59,-1409.32 2333.89,-1572.49 2356.46,-1639.1"/>
<polygon fill="#6c8ebf" stroke="#6c8ebf" points="2353.02,-1639.87 2359.55,-1648.21 2359.65,-1637.62 2353.02,-1639.87"/>
<text text-anchor="middle" x="2431.73" y="-1500.6" font-family="Times,serif" font-size="14.00">Поддерживаемые размеры колёс</text>
</g>
<!-- carTypes -->
<g id="node11" class="node">
<title>carTypes</title>
<polygon fill="#85bbf0" stroke="black" points="2095.63,-1515.66 1985.63,-1515.66 1985.63,-1479.66 2095.63,-1479.66 2095.63,-1515.66"/>
<text text-anchor="middle" x="2040.63" y="-1493.96" font-family="Times,serif" font-size="14.00">Типы машин</text>
</g>
<!-- carTypes&#45;&gt;getUser -->
<g id="edge11" class="edge">
<title>carTypes&#45;&gt;getUser</title>
<path fill="none" stroke="#6c8ebf" d="M2036.45,-1479.43C2023.72,-1423.9 1985.34,-1256.43 1969.68,-1188.11"/>
<polygon fill="#6c8ebf" stroke="#6c8ebf" points="1973.1,-1187.36 1967.45,-1178.39 1966.27,-1188.92 1973.1,-1187.36"/>
<text text-anchor="middle" x="1904.07" y="-1337.57" font-family="Times,serif" font-size="14.00">Тип машины пользователя</text>
</g>
<!-- carTypes&#45;&gt;getPoints -->
<g id="edge13" class="edge">
<title>carTypes&#45;&gt;getPoints</title>
<path fill="none" stroke="#6c8ebf" d="M2075.79,-1516.04C2135.25,-1547.14 2255.62,-1610.07 2321.18,-1644.35"/>
<polygon fill="#6c8ebf" stroke="#6c8ebf" points="2319.39,-1647.36 2329.87,-1648.89 2322.63,-1641.16 2319.39,-1647.36"/>
<text text-anchor="middle" x="2084.48" y="-1584" font-family="Times,serif" font-size="14.00">Поддерживаемые типы машин</text>
</g>
<!-- facilities -->
<g id="node14" class="node">
<title>facilities</title>
<polygon fill="#85bbf0" stroke="black" points="2720.3,-1489.72 2652.3,-1489.72 2652.3,-1453.72 2720.3,-1453.72 2720.3,-1489.72"/>
<text text-anchor="middle" x="2686.3" y="-1468.02" font-family="Times,serif" font-size="14.00">Услуги</text>
</g>
<!-- facilities&#45;&gt;getPoints -->
<g id="edge14" class="edge">
<title>facilities&#45;&gt;getPoints</title>
<path fill="none" stroke="#6c8ebf" d="M2656.18,-1490.18C2598.01,-1525.83 2470.22,-1604.15 2405.47,-1643.84"/>
<polygon fill="#6c8ebf" stroke="#6c8ebf" points="2404.01,-1640.63 2397.31,-1648.84 2407.66,-1646.6 2404.01,-1640.63"/>
<text text-anchor="middle" x="2481.33" y="-1570.81" font-family="Times,serif" font-size="14.00">Услуги точки</text>
</g>
<!-- tags -->
<g id="node15" class="node">
<title>tags</title>
<polygon fill="#85bbf0" stroke="black" points="2735.7,-1725.85 2681.7,-1725.85 2681.7,-1689.85 2735.7,-1689.85 2735.7,-1725.85"/>
<text text-anchor="middle" x="2708.7" y="-1704.15" font-family="Times,serif" font-size="14.00">Тэги</text>
</g>
<!-- tags&#45;&gt;getPoints -->
<g id="edge15" class="edge">
<title>tags&#45;&gt;getPoints</title>
<path fill="none" stroke="#6c8ebf" d="M2681.25,-1704.65C2630.52,-1698.73 2520.38,-1685.88 2444.76,-1677.06"/>
<polygon fill="#6c8ebf" stroke="#6c8ebf" points="2445.24,-1673.59 2434.9,-1675.91 2444.43,-1680.54 2445.24,-1673.59"/>
<text text-anchor="middle" x="2522.5" y="-1694.65" font-family="Times,serif" font-size="14.00">Тэги точки</text>
</g>
<!-- mapPoints -->
<g id="node16" class="node">
<title>mapPoints</title>
<polygon fill="#85bbf0" stroke="black" points="2382.16,-2061.33 2253.16,-2061.33 2253.16,-2025.33 2382.16,-2025.33 2382.16,-2061.33"/>
<text text-anchor="middle" x="2317.66" y="-2039.63" font-family="Times,serif" font-size="14.00">Точки на карте</text>
</g>
<!-- mapPoints&#45;&gt;getPoints -->
<g id="edge16" class="edge">
<title>mapPoints&#45;&gt;getPoints</title>
<path fill="none" stroke="#6c8ebf" d="M2320.04,-2024.97C2327.85,-1964.58 2352.78,-1771.79 2362.39,-1697.49"/>
<polygon fill="#6c8ebf" stroke="#6c8ebf" points="2365.84,-1698.09 2363.65,-1687.72 2358.9,-1697.19 2365.84,-1698.09"/>
<text text-anchor="middle" x="2294.71" y="-1865.03" font-family="Times,serif" font-size="14.00">Спиок точек</text>
</g>
<!-- mpModerated -->
<g id="node17" class="node">
<title>mpModerated</title>
<polygon fill="#85bbf0" stroke="black" points="2767.15,-2599.8 2441.15,-2599.8 2441.15,-2563.8 2767.15,-2563.8 2767.15,-2599.8"/>
<text text-anchor="middle" x="2604.15" y="-2578.1" font-family="Times,serif" font-size="14.00">Топик &quot;Точка на карте промодерирована&quot;</text>
</g>
<!-- createMapPoint -->
<g id="node18" class="node">
<title>createMapPoint</title>
<polygon fill="#b6d7f0" stroke="black" points="2063.07,-2236.95 1942.07,-2236.95 1942.07,-2200.95 2063.07,-2200.95 2063.07,-2236.95"/>
<text text-anchor="middle" x="2002.57" y="-2215.25" font-family="Times,serif" font-size="14.00">Создать точку</text>
</g>
<!-- createMapPoint&#45;&gt;mapPoints -->
<g id="edge17" class="edge">
<title>createMapPoint&#45;&gt;mapPoints</title>
<path fill="none" stroke="#b85450" d="M2035.7,-2200.49C2093.14,-2168.47 2211.17,-2102.69 2274.78,-2067.23"/>
<polygon fill="#b85450" stroke="#b85450" points="2276.15,-2070.47 2283.19,-2062.54 2272.75,-2064.36 2276.15,-2070.47"/>
<text text-anchor="middle" x="2102.74" y="-2137.66" font-family="Times,serif" font-size="14.00">Создать точку</text>
</g>
<!-- editMapPoint -->
<g id="node19" class="node">
<title>editMapPoint</title>
<polygon fill="#b6d7f0" stroke="black" points="2402.39,-2405.55 2267.39,-2405.55 2267.39,-2369.55 2402.39,-2369.55 2402.39,-2405.55"/>
<text text-anchor="middle" x="2334.89" y="-2383.85" font-family="Times,serif" font-size="14.00">Изменить точку</text>
</g>
<!-- editMapPoint&#45;&gt;mapPoints -->
<g id="edge18" class="edge">
<title>editMapPoint&#45;&gt;mapPoints</title>
<path fill="none" stroke="#b85450" d="M2333.98,-2369.53C2331.18,-2313.54 2322.61,-2142.26 2319.14,-2072.93"/>
<polygon fill="#b85450" stroke="#b85450" points="2322.65,-2072.91 2318.65,-2063.1 2315.65,-2073.26 2322.65,-2072.91"/>
<text text-anchor="middle" x="2267.06" y="-2225.03" font-family="Times,serif" font-size="14.00">Изменить точку</text>
</g>
<!-- editMapPoint&#45;&gt;mpModerated -->
<g id="edge19" class="edge">
<title>editMapPoint&#45;&gt;mpModerated</title>
<path fill="none" stroke="#b85450" d="M2360.22,-2405.82C2408.63,-2440.75 2514.36,-2517.02 2569.36,-2556.7"/>
<polygon fill="#b85450" stroke="#b85450" points="2567.3,-2559.53 2577.46,-2562.55 2571.4,-2553.86 2567.3,-2559.53"/>
<text text-anchor="middle" x="2283.29" y="-2485.06" font-family="Times,serif" font-size="14.00">Отправить сообщение о прохождении модерации</text>
</g>
<!-- deleteMapPoint -->
<g id="node20" class="node">
<title>deleteMapPoint</title>
<polygon fill="#b6d7f0" stroke="black" points="2680.42,-2267.37 2558.42,-2267.37 2558.42,-2231.37 2680.42,-2231.37 2680.42,-2267.37"/>
<text text-anchor="middle" x="2619.42" y="-2245.67" font-family="Times,serif" font-size="14.00">Удалить точку</text>
</g>
<!-- deleteMapPoint&#45;&gt;mapPoints -->
<g id="edge20" class="edge">
<title>deleteMapPoint&#45;&gt;mapPoints</title>
<path fill="none" stroke="#b85450" d="M2592.37,-2230.91C2538,-2193.78 2415.39,-2110.06 2354.05,-2068.18"/>
<polygon fill="#b85450" stroke="#b85450" points="2356.24,-2065.43 2346,-2062.68 2352.29,-2071.21 2356.24,-2065.43"/>
<text text-anchor="middle" x="2351.21" y="-2153.34" font-family="Times,serif" font-size="14.00">Установить флаг удаления точки</text>
</g>
<!-- deleteMapPoint&#45;&gt;mpModerated -->
<g id="edge21" class="edge">
<title>deleteMapPoint&#45;&gt;mpModerated</title>
<path fill="none" stroke="#b85450" d="M2618.58,-2267.72C2616.06,-2322.43 2608.6,-2484.84 2605.51,-2552.1"/>
<polygon fill="#b85450" stroke="#b85450" points="2602.02,-2551.85 2605.06,-2562 2609.01,-2552.17 2602.02,-2551.85"/>
<text text-anchor="middle" x="2430.54" y="-2413.71" font-family="Times,serif" font-size="14.00">Отправить сообщение о прохождении модерации</text>
</g>
<!-- pushService -->
<g id="node21" class="node">
<title>pushService</title>
<polygon fill="#85bbf0" stroke="black" points="952,-2334.19 669,-2334.19 669,-2298.19 952,-2298.19 952,-2334.19"/>
<text text-anchor="middle" x="810.5" y="-2312.49" font-family="Times,serif" font-size="14.00">Сервис отправки Push&#45;уведомлений</text>
</g>
<!-- notifications -->
<g id="node22" class="node">
<title>notifications</title>
<polygon fill="#85bbf0" stroke="black" points="1346.52,-2394.47 1155.52,-2394.47 1155.52,-2358.47 1346.52,-2358.47 1346.52,-2394.47"/>
<text text-anchor="middle" x="1251.02" y="-2372.77" font-family="Times,serif" font-size="14.00">Коллекция уедомлений</text>
</g>
<!-- getNewsNotifications -->
<g id="node26" class="node">
<title>getNewsNotifications</title>
<polygon fill="#b6d7f0" stroke="black" points="1420.86,-2657.44 1095.86,-2657.44 1095.86,-2621.44 1420.86,-2621.44 1420.86,-2657.44"/>
<text text-anchor="middle" x="1258.36" y="-2635.74" font-family="Times,serif" font-size="14.00">Получить список новостных уведомлений</text>
</g>
<!-- notifications&#45;&gt;getNewsNotifications -->
<g id="edge27" class="edge">
<title>notifications&#45;&gt;getNewsNotifications</title>
<path fill="none" stroke="#6c8ebf" d="M1251.54,-2394.96C1252.79,-2439.85 1256,-2554.9 1257.52,-2609.64"/>
<polygon fill="#6c8ebf" stroke="#6c8ebf" points="1254.02,-2609.56 1257.8,-2619.46 1261.02,-2609.36 1254.02,-2609.56"/>
<text text-anchor="middle" x="1163.53" y="-2506.1" font-family="Times,serif" font-size="14.00">Новостные уведомления</text>
</g>
<!-- getPersonalNotifications -->
<g id="node29" class="node">
<title>getPersonalNotifications</title>
<polygon fill="#b6d7f0" stroke="black" points="1585.75,-2186.85 1233.75,-2186.85 1233.75,-2150.85 1585.75,-2150.85 1585.75,-2186.85"/>
<text text-anchor="middle" x="1409.75" y="-2165.15" font-family="Times,serif" font-size="14.00">Получить список персональных уведомлений</text>
</g>
<!-- notifications&#45;&gt;getPersonalNotifications -->
<g id="edge29" class="edge">
<title>notifications&#45;&gt;getPersonalNotifications</title>
<path fill="none" stroke="#6c8ebf" d="M1265.11,-2358.04C1293.11,-2321.41 1355.9,-2239.28 1388.78,-2196.28"/>
<polygon fill="#6c8ebf" stroke="#6c8ebf" points="1391.48,-2198.5 1394.77,-2188.43 1385.92,-2194.25 1391.48,-2198.5"/>
<text text-anchor="middle" x="1277.44" y="-2280.96" font-family="Times,serif" font-size="14.00">Уведомления</text>
</g>
<!-- createNewsNotification -->
<g id="node23" class="node">
<title>createNewsNotification</title>
<polygon fill="#b6d7f0" stroke="black" points="1163.75,-2240.85 909.75,-2240.85 909.75,-2204.85 1163.75,-2204.85 1163.75,-2240.85"/>
<text text-anchor="middle" x="1036.75" y="-2219.15" font-family="Times,serif" font-size="14.00">Создать новостное уведомление</text>
</g>
<!-- createNewsNotification&#45;&gt;pushService -->
<g id="edge22" class="edge">
<title>createNewsNotification&#45;&gt;pushService</title>
<path fill="none" stroke="#b85450" d="M992.05,-2241.29C955.79,-2256.25 904.52,-2277.4 865.7,-2293.41"/>
<polygon fill="#b85450" stroke="#b85450" points="864.41,-2290.16 856.51,-2297.21 867.08,-2296.63 864.41,-2290.16"/>
<text text-anchor="middle" x="870.37" y="-2271.15" font-family="Times,serif" font-size="14.00">Отправить push</text>
</g>
<!-- createNewsNotification&#45;&gt;notifications -->
<g id="edge23" class="edge">
<title>createNewsNotification&#45;&gt;notifications</title>
<path fill="none" stroke="#b85450" d="M1062.17,-2241.07C1100.4,-2268.49 1172.83,-2320.41 1216.03,-2351.38"/>
<polygon fill="#b85450" stroke="#b85450" points="1213.9,-2354.16 1224.07,-2357.15 1217.98,-2348.47 1213.9,-2354.16"/>
<text text-anchor="middle" x="1054.6" y="-2300.03" font-family="Times,serif" font-size="14.00">Добавить уведомление</text>
</g>
<!-- deleteNotification -->
<g id="node24" class="node">
<title>deleteNotification</title>
<polygon fill="#b6d7f0" stroke="black" points="1558.28,-2528.25 1382.28,-2528.25 1382.28,-2492.25 1558.28,-2492.25 1558.28,-2528.25"/>
<text text-anchor="middle" x="1470.28" y="-2506.55" font-family="Times,serif" font-size="14.00">Удалить уведомление</text>
</g>
<!-- deleteNotification&#45;&gt;notifications -->
<g id="edge24" class="edge">
<title>deleteNotification&#45;&gt;notifications</title>
<path fill="none" stroke="#b85450" d="M1440.25,-2491.93C1401.4,-2468.22 1333.63,-2426.87 1290.61,-2400.63"/>
<polygon fill="#b85450" stroke="#b85450" points="1292.69,-2397.79 1282.33,-2395.57 1289.04,-2403.77 1292.69,-2397.79"/>
<text text-anchor="middle" x="1285.43" y="-2450.08" font-family="Times,serif" font-size="14.00">Удалить уведомление</text>
</g>
<!-- createPersonalNotification -->
<g id="node25" class="node">
<title>createPersonalNotification</title>
<polygon fill="#b6d7f0" stroke="black" points="1146.13,-2478.83 865.13,-2478.83 865.13,-2442.83 1146.13,-2442.83 1146.13,-2478.83"/>
<text text-anchor="middle" x="1005.63" y="-2457.13" font-family="Times,serif" font-size="14.00">Создать персональное уведомление</text>
</g>
<!-- createPersonalNotification&#45;&gt;pushService -->
<g id="edge25" class="edge">
<title>createPersonalNotification&#45;&gt;pushService</title>
<path fill="none" stroke="#b85450" d="M980.91,-2442.51C946.26,-2416.82 883.12,-2370.02 844.19,-2341.16"/>
<polygon fill="#b85450" stroke="#b85450" points="846.65,-2338.63 836.54,-2335.49 842.48,-2344.25 846.65,-2338.63"/>
<text text-anchor="middle" x="854.05" y="-2395.63" font-family="Times,serif" font-size="14.00">Отправить push</text>
</g>
<!-- createPersonalNotification&#45;&gt;notifications -->
<g id="edge26" class="edge">
<title>createPersonalNotification&#45;&gt;notifications</title>
<path fill="none" stroke="#b85450" d="M1059.18,-2442.42C1096.77,-2429.5 1147.22,-2412.15 1186.95,-2398.5"/>
<polygon fill="#b85450" stroke="#b85450" points="1187.83,-2401.89 1196.15,-2395.33 1185.56,-2395.27 1187.83,-2401.89"/>
<text text-anchor="middle" x="1038.56" y="-2424.26" font-family="Times,serif" font-size="14.00">Добавить уведомление</text>
</g>
<!-- readNotifications -->
<g id="node27" class="node">
<title>readNotifications</title>
<polygon fill="#85bbf0" stroke="black" points="1660.22,-1993.35 1442.22,-1993.35 1442.22,-1957.35 1660.22,-1957.35 1660.22,-1993.35"/>
<text text-anchor="middle" x="1551.22" y="-1971.65" font-family="Times,serif" font-size="14.00">Прочитанные уведомления</text>
</g>
<!-- readNotifications&#45;&gt;getPersonalNotifications -->
<g id="edge30" class="edge">
<title>readNotifications&#45;&gt;getPersonalNotifications</title>
<path fill="none" stroke="#6c8ebf" d="M1537.91,-1993.55C1513,-2027.62 1459.21,-2101.19 1429.86,-2141.34"/>
<polygon fill="#6c8ebf" stroke="#6c8ebf" points="1427.09,-2139.19 1424.02,-2149.33 1432.74,-2143.32 1427.09,-2139.19"/>
<text text-anchor="middle" x="1419.88" y="-2071.25" font-family="Times,serif" font-size="14.00">Флаги прочтения</text>
</g>
<!-- readNotification -->
<g id="node28" class="node">
<title>readNotification</title>
<polygon fill="#b6d7f0" stroke="black" points="1802.72,-1820 1607.72,-1820 1607.72,-1784 1802.72,-1784 1802.72,-1820"/>
<text text-anchor="middle" x="1705.22" y="-1798.3" font-family="Times,serif" font-size="14.00">Прочитать уведомление</text>
</g>
<!-- readNotification&#45;&gt;readNotifications -->
<g id="edge28" class="edge">
<title>readNotification&#45;&gt;readNotifications</title>
<path fill="none" stroke="#b85450" d="M1689.03,-1820.22C1661.76,-1850.92 1606.57,-1913.05 1574.93,-1948.66"/>
<polygon fill="#b85450" stroke="#b85450" points="1572.45,-1946.18 1568.43,-1955.98 1577.69,-1950.82 1572.45,-1946.18"/>
<text text-anchor="middle" x="1476.48" y="-1888.24" font-family="Times,serif" font-size="14.00">Добавить пару пользователь/уведомление</text>
</g>
</g>
</svg>
