<svg width="132" height="132" viewBox="0 0 132 132" fill="none" xmlns="http://www.w3.org/2000/svg">
<g clip-path="url(#clip0_519_2001)">
<path d="M81.5361 62.9865H42.5386V47.5547H81.5361C83.814 47.5547 85.3979 47.9518 86.1928 48.6451C86.9877 49.3385 87.4801 50.6245 87.4801 52.5031V58.0441C87.4801 60.0234 86.9877 61.3094 86.1928 62.0028C85.3979 62.6961 83.814 62.9925 81.5361 62.9925V62.9865ZM84.2115 33.0059H26V99H42.5386V77.5294H73.0177L87.4801 99H106L90.0546 77.4287C95.9333 76.5575 98.573 74.7559 100.75 71.7869C102.927 68.8179 104.019 64.071 104.019 57.7359V52.7876C104.019 49.0303 103.621 46.0613 102.927 43.7857C102.233 41.51 101.047 39.5307 99.362 37.7528C97.5824 36.0698 95.6011 34.8845 93.2223 34.0904C90.8435 33.3971 87.8716 33 84.2115 33V33.0059Z" fill="black"/>
<path d="M198 3.05176e-05C198 36.4508 168.451 66.0001 132 66.0001C124.589 66.0001 117.464 64.7786 110.814 62.5261C110.956 60.9577 111.019 59.3541 111.019 57.7359V52.7876C111.019 48.586 110.58 44.8824 109.623 41.7436C108.59 38.3588 106.82 35.4458 104.443 32.938L104.311 32.7988L104.172 32.667C101.64 30.2721 98.7694 28.5625 95.4389 27.4506L95.3108 27.4079L95.1812 27.3701C92.0109 26.446 88.3508 26 84.2115 26H77.2115V26.0059H71.3211C67.8964 18.0257 66 9.23434 66 3.05176e-05C66 -36.4508 95.5492 -66 132 -66C168.451 -66 198 -36.4508 198 3.05176e-05Z" fill="black"/>
</g>
<rect x="1" y="1" width="130" height="130" rx="31" stroke="black" stroke-width="2"/>
<defs>
<clipPath id="clip0_519_2001">
<rect width="132" height="132" rx="32" fill="white"/>
</clipPath>
</defs>
</svg>
